<?xml version="1.0" encoding="UTF-8"?>
<svg id="Layer_2" data-name="Layer 2" xmlns="http://www.w3.org/2000/svg" viewBox="0 0 180 252">
  <defs>
    <style>
      .cls-1 {
        fill: none;
        stroke: red;
        stroke-miterlimit: 10;
        stroke-width: .25px;
      }
    </style>
  </defs>
  <path class="cls-1" d="M14.37,15.44h23.11v26.3c1.13,8.46-4.93,15.28-10.87,15.61-6.25.34-13.34-6.46-12.37-15.48.04-8.81.09-17.62.13-26.43Z"/>
  <path class="cls-1" d="M50.69,15.44h23.11v26.3c1.13,8.46-4.93,15.28-10.87,15.61-6.25.34-13.34-6.46-12.37-15.48.04-8.81.09-17.62.13-26.43Z"/>
  <path class="cls-1" d="M87.01,15.44h23.11v26.3c1.13,8.46-4.93,15.28-10.87,15.61-6.25.34-13.34-6.46-12.37-15.48.04-8.81.09-17.62.13-26.43Z"/>
  <path class="cls-1" d="M122.49,15.44h23.11v26.3c1.13,8.46-4.93,15.28-10.87,15.61-6.25.34-13.34-6.46-12.37-15.48.04-8.81.09-17.62.13-26.43Z"/>
  <path class="cls-1" d="M50.69,68.67h23.11v26.3c1.13,8.46-4.93,15.28-10.87,15.61-6.25.34-13.34-6.46-12.37-15.48.04-8.81.09-17.62.13-26.43Z"/>
  <path class="cls-1" d="M14.37,68.67h23.11v26.3c1.13,8.46-4.93,15.28-10.87,15.61-6.25.34-13.34-6.46-12.37-15.48.04-8.81.09-17.62.13-26.43Z"/>
  <path class="cls-1" d="M87.01,68.67h23.11v26.3c1.13,8.46-4.93,15.28-10.87,15.61-6.25.34-13.34-6.46-12.37-15.48.04-8.81.09-17.62.13-26.43Z"/>
  <path class="cls-1" d="M122.49,68.67h23.11v26.3c1.13,8.46-4.93,15.28-10.87,15.61-6.25.34-13.34-6.46-12.37-15.48.04-8.81.09-17.62.13-26.43Z"/>
  <path class="cls-1" d="M14.37,123.24h23.11v26.3c1.13,8.46-4.93,15.28-10.87,15.61-6.25.34-13.34-6.46-12.37-15.48.04-8.81.09-17.62.13-26.43Z"/>
  <path class="cls-1" d="M50.69,123.24h23.11v26.3c1.13,8.46-4.93,15.28-10.87,15.61-6.25.34-13.34-6.46-12.37-15.48.04-8.81.09-17.62.13-26.43Z"/>
  <path class="cls-1" d="M87.01,123.24h23.11v26.3c1.13,8.46-4.93,15.28-10.87,15.61-6.25.34-13.34-6.46-12.37-15.48.04-8.81.09-17.62.13-26.43Z"/>
  <path class="cls-1" d="M122.49,123.24h23.11v26.3c1.13,8.46-4.93,15.28-10.87,15.61-6.25.34-13.34-6.46-12.37-15.48.04-8.81.09-17.62.13-26.43Z"/>
  <path class="cls-1" d="M14.37,177.37h23.11v26.3c1.13,8.46-4.93,15.28-10.87,15.61-6.25.34-13.34-6.46-12.37-15.48.04-8.81.09-17.62.13-26.43Z"/>
  <path class="cls-1" d="M50.69,176.12h23.11v26.3c1.13,8.46-4.93,15.28-10.87,15.61-6.25.34-13.34-6.46-12.37-15.48.04-8.81.09-17.62.13-26.43Z"/>
</svg>