<?xml version="1.0" encoding="UTF-8"?>
<svg id="Layer_2" data-name="Layer 2" xmlns="http://www.w3.org/2000/svg" viewBox="0 0 131.84 204.1">
  <defs>
    <style>
      .cls-1 {
        fill: none;
        stroke: red;
        stroke-miterlimit: 10;
        stroke-width: .25px;
      }
    </style>
  </defs>
  <path class="cls-1" d="M.34.12h23.11v26.3c1.13,8.46-4.93,15.28-10.87,15.61-6.25.34-13.34-6.46-12.37-15.48C.26,17.74.3,8.93.34.12Z"/>
  <path class="cls-1" d="M36.66.13h23.11v26.3c1.13,8.46-4.93,15.28-10.87,15.61-6.25.34-13.34-6.46-12.37-15.48.04-8.81.09-17.62.13-26.43Z"/>
  <path class="cls-1" d="M72.98.13h23.11v26.3c1.13,8.46-4.93,15.28-10.87,15.61-6.25.34-13.34-6.46-12.37-15.48.04-8.81.09-17.62.13-26.43Z"/>
  <path class="cls-1" d="M108.47.12h23.11v26.3c1.13,8.46-4.93,15.28-10.87,15.61-6.25.34-13.34-6.46-12.37-15.48.04-8.81.09-17.62.13-26.43Z"/>
  <path class="cls-1" d="M36.66,53.35h23.11v26.3c1.13,8.46-4.93,15.28-10.87,15.61-6.25.34-13.34-6.46-12.37-15.48.04-8.81.09-17.62.13-26.43Z"/>
  <path class="cls-1" d="M.34,53.35h23.11v26.3c1.13,8.46-4.93,15.28-10.87,15.61-6.25.34-13.34-6.46-12.37-15.48.04-8.81.09-17.62.13-26.43Z"/>
  <path class="cls-1" d="M72.98,53.35h23.11v26.3c1.13,8.46-4.93,15.28-10.87,15.61-6.25.34-13.34-6.46-12.37-15.48.04-8.81.09-17.62.13-26.43Z"/>
  <path class="cls-1" d="M108.47,53.35h23.11v26.3c1.13,8.46-4.93,15.28-10.87,15.61-6.25.34-13.34-6.46-12.37-15.48.04-8.81.09-17.62.13-26.43Z"/>
  <path class="cls-1" d="M.34,107.93h23.11v26.3c1.13,8.46-4.93,15.28-10.87,15.61-6.25.34-13.34-6.46-12.37-15.48.04-8.81.09-17.62.13-26.43Z"/>
  <path class="cls-1" d="M36.66,107.93h23.11v26.3c1.13,8.46-4.93,15.28-10.87,15.61-6.25.34-13.34-6.46-12.37-15.48.04-8.81.09-17.62.13-26.43Z"/>
  <path class="cls-1" d="M72.98,107.93h23.11v26.3c1.13,8.46-4.93,15.28-10.87,15.61-6.25.34-13.34-6.46-12.37-15.48.04-8.81.09-17.62.13-26.43Z"/>
  <path class="cls-1" d="M108.47,107.93h23.11v26.3c1.13,8.46-4.93,15.28-10.87,15.61-6.25.34-13.34-6.46-12.37-15.48.04-8.81.09-17.62.13-26.43Z"/>
  <path class="cls-1" d="M.34,162.05h23.11v26.3c1.13,8.46-4.93,15.28-10.87,15.61-6.25.34-13.34-6.46-12.37-15.48.04-8.81.09-17.62.13-26.43Z"/>
  <path class="cls-1" d="M36.66,160.8h23.11v26.3c1.13,8.46-4.93,15.28-10.87,15.61-6.25.34-13.34-6.46-12.37-15.48.04-8.81.09-17.62.13-26.43Z"/>
  <path class="cls-1" d="M72.98,160.8h23.11v26.3c1.13,8.46-4.93,15.28-10.87,15.61-6.25.34-13.34-6.46-12.37-15.48.04-8.81.09-17.62.13-26.43Z"/>
  <path class="cls-1" d="M108.47,162.05h23.11v26.3c1.13,8.46-4.93,15.28-10.87,15.61-6.25.34-13.34-6.46-12.37-15.48.04-8.81.09-17.62.13-26.43Z"/>
</svg>