<?xml version="1.0" encoding="utf-8"?>
<!-- Generator: Adobe Illustrator 28.2.0, SVG Export Plug-In . SVG Version: 6.00 Build 0)  -->
<svg version="1.1" id="Layer_2" xmlns="http://www.w3.org/2000/svg" xmlns:xlink="http://www.w3.org/1999/xlink" x="0px" y="0px"
	 viewBox="0 0 180 252" style="enable-background:new 0 0 180 252;" xml:space="preserve">
<style type="text/css">
	.st0{fill:#FFFFFF;stroke:#FF0000;stroke-width:0.25;stroke-miterlimit:10;}
</style>
<path class="st0" d="M15.72,15.47c6.89-0.13,13.79-0.26,20.68-0.38c-0.08,3.99-0.16,7.99-0.24,11.98
	c0.56,5.98-4.13,11.21-9.97,11.38c-5.77,0.16-10.7-4.67-10.6-10.6C15.64,23.72,15.68,19.6,15.72,15.47z"/>
<path class="st0" d="M52.59,16.04c6.89-0.13,13.79-0.26,20.68-0.38c-0.08,3.99-0.16,7.99-0.24,11.98
	c0.56,5.98-4.13,11.21-9.97,11.38c-5.77,0.16-10.7-4.67-10.6-10.6C52.51,24.29,52.55,20.16,52.59,16.04z"/>
<path class="st0" d="M89.35,16.04c6.89-0.13,13.79-0.26,20.68-0.38c-0.08,3.99-0.16,7.99-0.24,11.98
	c0.56,5.98-4.13,11.21-9.97,11.38c-5.77,0.16-10.7-4.67-10.6-10.6C89.27,24.29,89.31,20.16,89.35,16.04z"/>
<path class="st0" d="M124.21,16.04c6.89-0.13,13.79-0.26,20.68-0.38c-0.08,3.99-0.16,7.99-0.24,11.98
	c0.56,5.98-4.13,11.21-9.97,11.38c-5.77,0.16-10.7-4.67-10.6-10.6C124.12,24.29,124.16,20.16,124.21,16.04z"/>
<path class="st0" d="M89.35,55.02c6.89-0.13,13.79-0.26,20.68-0.38c-0.08,3.99-0.16,7.99-0.24,11.98
	c0.56,5.98-4.13,11.21-9.97,11.38c-5.77,0.16-10.7-4.67-10.6-10.6C89.27,63.27,89.31,59.15,89.35,55.02z"/>
<path class="st0" d="M125.61,55.02c6.89-0.13,13.79-0.26,20.68-0.38c-0.08,3.99-0.16,7.99-0.24,11.98
	c0.56,5.98-4.13,11.21-9.97,11.38c-5.77,0.16-10.7-4.67-10.6-10.6C125.52,63.27,125.57,59.15,125.61,55.02z"/>
<path class="st0" d="M52.59,55.02c6.89-0.13,13.79-0.26,20.68-0.38c-0.08,3.99-0.16,7.99-0.24,11.98C73.59,72.6,68.9,77.84,63.06,78
	c-5.77,0.16-10.7-4.67-10.6-10.6C52.51,63.27,52.55,59.15,52.59,55.02z"/>
<path class="st0" d="M15.72,55.02c6.89-0.13,13.79-0.26,20.68-0.38c-0.08,3.99-0.16,7.99-0.24,11.98
	c0.56,5.98-4.13,11.21-9.97,11.38c-5.77,0.16-10.7-4.67-10.6-10.6C15.64,63.27,15.68,59.15,15.72,55.02z"/>
<path class="st0" d="M90.13,94.77c6.89-0.13,13.79-0.26,20.68-0.38c-0.08,3.99-0.16,7.99-0.24,11.98
	c0.56,5.98-4.13,11.21-9.97,11.38c-5.77,0.16-10.7-4.67-10.6-10.6C90.05,103.03,90.09,98.9,90.13,94.77z"/>
<path class="st0" d="M124.96,94.77c6.89-0.13,13.79-0.26,20.68-0.38c-0.08,3.99-0.16,7.99-0.24,11.98
	c0.56,5.98-4.13,11.21-9.97,11.38c-5.77,0.16-10.7-4.67-10.6-10.6C124.88,103.03,124.92,98.9,124.96,94.77z"/>
<path class="st0" d="M53.09,94.77c6.89-0.13,13.79-0.26,20.68-0.38c-0.08,3.99-0.16,7.99-0.24,11.98
	c0.56,5.98-4.13,11.21-9.97,11.38c-5.77,0.16-10.7-4.67-10.6-10.6C53.01,103.03,53.05,98.9,53.09,94.77z"/>
<path class="st0" d="M15.83,94.77c6.89-0.13,13.79-0.26,20.68-0.38c-0.08,3.99-0.16,7.99-0.24,11.98
	c0.56,5.98-4.13,11.21-9.97,11.38c-5.77,0.16-10.7-4.67-10.6-10.6C15.74,103.03,15.79,98.9,15.83,94.77z"/>
<path class="st0" d="M15.83,133.81c6.89-0.13,13.79-0.26,20.68-0.38c-0.08,3.99-0.16,7.99-0.24,11.98
	c0.56,5.98-4.13,11.21-9.97,11.38c-5.77,0.16-10.7-4.67-10.6-10.6C15.74,142.06,15.79,137.93,15.83,133.81z"/>
<path class="st0" d="M53.09,133.81c6.89-0.13,13.79-0.26,20.68-0.38c-0.08,3.99-0.16,7.99-0.24,11.98
	c0.56,5.98-4.13,11.21-9.97,11.38c-5.77,0.16-10.7-4.67-10.6-10.6C53.01,142.06,53.05,137.93,53.09,133.81z"/>
<path class="st0" d="M88.98,134.36c6.89-0.13,13.79-0.26,20.68-0.38c-0.08,3.99-0.16,7.99-0.24,11.98
	c0.56,5.98-4.13,11.21-9.97,11.38c-5.77,0.16-10.7-4.67-10.6-10.6C88.89,142.62,88.94,138.49,88.98,134.36z"/>
<path class="st0" d="M124.96,134.36c6.89-0.13,13.79-0.26,20.68-0.38c-0.08,3.99-0.16,7.99-0.24,11.98
	c0.56,5.98-4.13,11.21-9.97,11.38c-5.77,0.16-10.7-4.67-10.6-10.6C124.88,142.62,124.92,138.49,124.96,134.36z"/>
<path class="st0" d="M53.09,173.75c6.89-0.13,13.79-0.26,20.68-0.38c-0.08,3.99-0.16,7.99-0.24,11.98
	c0.56,5.98-4.13,11.21-9.97,11.38c-5.77,0.16-10.7-4.67-10.6-10.6C53.01,182,53.05,177.88,53.09,173.75z"/>
<path class="st0" d="M15.06,173.75c6.89-0.13,13.79-0.26,20.68-0.38c-0.08,3.99-0.16,7.99-0.24,11.98
	c0.56,5.98-4.13,11.21-9.97,11.38c-5.77,0.16-10.7-4.67-10.6-10.6C14.98,182,15.02,177.88,15.06,173.75z"/>
<path class="st0" d="M88.98,173.75c6.89-0.13,13.79-0.26,20.68-0.38c-0.08,3.99-0.16,7.99-0.24,11.98
	c0.56,5.98-4.13,11.21-9.97,11.38c-5.77,0.16-10.7-4.67-10.6-10.6C88.89,182,88.94,177.88,88.98,173.75z"/>
<path class="st0" d="M125.48,173.75c6.89-0.13,13.79-0.26,20.68-0.38c-0.08,3.99-0.16,7.99-0.24,11.98
	c0.56,5.98-4.13,11.21-9.97,11.38c-5.77,0.16-10.7-4.67-10.6-10.6C125.4,182,125.44,177.88,125.48,173.75z"/>
<path class="st0" d="M53.99,213.14c6.89-0.13,13.79-0.26,20.68-0.38c-0.08,3.99-0.16,7.99-0.24,11.98
	c0.56,5.98-4.13,11.21-9.97,11.38c-5.77,0.16-10.7-4.67-10.6-10.6C53.91,221.39,53.95,217.26,53.99,213.14z"/>
<path class="st0" d="M15.06,213.14c6.89-0.13,13.79-0.26,20.68-0.38c-0.08,3.99-0.16,7.99-0.24,11.98
	c0.56,5.98-4.13,11.21-9.97,11.38c-5.77,0.16-10.7-4.67-10.6-10.6C14.98,221.39,15.02,217.26,15.06,213.14z"/>
</svg>
