<?xml version="1.0" standalone="no"?>
<svg id="Layer_2" data-name="Layer 2" xmlns="http://www.w3.org/2000/svg" viewBox="0 0 180 252" style="width: 270.72px; height: 399.126px;"><path class="cls-1" d="M14.32,15.220000267028809L37.43,15.220000267028809L37.43,41.520000267028806C38.56,49.98000026702881,32.5,56.80000026702881,26.560000000000002,57.130000267028805C20.310000000000002,57.47000026702881,13.220000000000002,50.670000267028804,14.190000000000003,41.6500002670288C14.230000000000002,32.8400002670288,14.280000000000003,24.0300002670288,14.320000000000004,15.220000267028801Z"/><path class="cls-1" d="M50.64,15.220000267028809L73.75,15.220000267028809L73.75,41.520000267028806C74.88,49.98000026702881,68.82,56.80000026702881,62.88,57.130000267028805C56.63,57.47000026702881,49.540000000000006,50.670000267028804,50.510000000000005,41.6500002670288C50.550000000000004,32.8400002670288,50.60000000000001,24.0300002670288,50.64000000000001,15.220000267028801Z"/><path class="cls-1" d="M86.96,15.220000267028809L110.07,15.220000267028809L110.07,41.520000267028806C111.19999999999999,49.98000026702881,105.13999999999999,56.80000026702881,99.19999999999999,57.130000267028805C92.94999999999999,57.47000026702881,85.85999999999999,50.670000267028804,86.82999999999998,41.6500002670288C86.86999999999999,32.8400002670288,86.91999999999999,24.0300002670288,86.95999999999998,15.220000267028801Z"/><path class="cls-1" d="M122.45,15.220000267028809L145.56,15.220000267028809L145.56,41.520000267028806C146.69,49.98000026702881,140.63,56.80000026702881,134.69,57.130000267028805C128.44,57.47000026702881,121.35,50.670000267028804,122.32,41.6500002670288C122.36,32.8400002670288,122.41,24.0300002670288,122.44999999999999,15.220000267028801Z"/><path class="cls-1" d="M 122.45 68.44999694824219 L 122.44999999999999 68.44999694824219 C 122.41 77.25999694824218 122.36 86.06999694824218 122.32 94.87999694824218 C 121.35 103.89999694824219 128.44 110.69999694824219 134.69 110.35999694824218 C 140.63 110.02999694824219 146.69 103.20999694824218 145.56 94.74999694824218 L 145.56 68.44999694824219 L 122.45 68.44999694824219"/><path class="cls-1" d="M 86.96 68.44999694824219 L 86.95999999999998 68.44999694824219 C 86.91999999999999 77.25999694824218 86.86999999999999 86.06999694824218 86.82999999999998 94.87999694824218 C 85.85999999999999 103.89999694824219 92.94999999999999 110.69999694824219 99.19999999999999 110.35999694824218 C 105.13999999999999 110.02999694824219 111.19999999999999 103.20999694824218 110.07 94.74999694824218 L 110.07 68.44999694824219 L 86.96 68.44999694824219"/><path class="cls-1" d="M 50.64 68.44999694824219 L 50.64000000000001 68.44999694824219 C 50.60000000000001 77.25999694824218 50.550000000000004 86.06999694824218 50.510000000000005 94.87999694824218 C 49.540000000000006 103.89999694824219 56.63 110.69999694824219 62.88 110.35999694824218 C 68.82 110.02999694824219 74.88 103.20999694824218 73.75 94.74999694824218 L 73.75 68.44999694824219 L 50.64 68.44999694824219"/><path class="cls-1" d="M 14.32 68.44999694824219 L 14.320000000000004 68.44999694824219 C 14.280000000000003 77.25999694824218 14.230000000000002 86.06999694824218 14.190000000000003 94.87999694824218 C 13.220000000000002 103.89999694824219 20.310000000000002 110.69999694824219 26.560000000000002 110.35999694824218 C 32.5 110.02999694824219 38.56 103.20999694824218 37.43 94.74999694824218 L 37.43 68.44999694824219 L 14.32 68.44999694824219"/><path class="cls-1" d="M14.32,123.02999877929688L37.43,123.02999877929688L37.43,149.3299987792969C38.56,157.7899987792969,32.5,164.6099987792969,26.560000000000002,164.9399987792969C20.310000000000002,165.2799987792969,13.220000000000002,158.4799987792969,14.190000000000003,149.4599987792969C14.230000000000002,140.6499987792969,14.280000000000003,131.8399987792969,14.320000000000004,123.0299987792969Z"/><path class="cls-1" d="M50.64,123.02999877929688L73.75,123.02999877929688L73.75,149.3299987792969C74.88,157.7899987792969,68.82,164.6099987792969,62.88,164.9399987792969C56.63,165.2799987792969,49.540000000000006,158.4799987792969,50.510000000000005,149.4599987792969C50.550000000000004,140.6499987792969,50.60000000000001,131.8399987792969,50.64000000000001,123.0299987792969Z"/><path class="cls-1" d="M86.96,123.02999877929688L110.07,123.02999877929688L110.07,149.3299987792969C111.19999999999999,157.7899987792969,105.13999999999999,164.6099987792969,99.19999999999999,164.9399987792969C92.94999999999999,165.2799987792969,85.85999999999999,158.4799987792969,86.82999999999998,149.4599987792969C86.86999999999999,140.6499987792969,86.91999999999999,131.8399987792969,86.95999999999998,123.0299987792969Z"/><path class="cls-1" d="M122.45,123.02999877929688L145.56,123.02999877929688L145.56,149.3299987792969C146.69,157.7899987792969,140.63,164.6099987792969,134.69,164.9399987792969C128.44,165.2799987792969,121.35,158.4799987792969,122.32,149.4599987792969C122.36,140.6499987792969,122.41,131.8399987792969,122.44999999999999,123.0299987792969Z"/><path class="cls-1" d="M 122.45 177.14999389648438 L 122.44999999999999 177.1499938964844 C 122.41 185.9599938964844 122.36 194.7699938964844 122.32 203.5799938964844 C 121.35 212.5999938964844 128.44 219.3999938964844 134.69 219.0599938964844 C 140.63 218.7299938964844 146.69 211.9099938964844 145.56 203.4499938964844 L 145.56 177.14999389648438 L 122.45 177.14999389648438"/><path class="cls-1" d="M 86.96 175.89999389648438 L 86.95999999999998 175.8999938964844 C 86.91999999999999 184.7099938964844 86.86999999999999 193.5199938964844 86.82999999999998 202.3299938964844 C 85.85999999999999 211.3499938964844 92.94999999999999 218.1499938964844 99.19999999999999 217.8099938964844 C 105.13999999999999 217.4799938964844 111.19999999999999 210.6599938964844 110.07 202.1999938964844 L 110.07 175.89999389648438 L 86.96 175.89999389648438"/><path class="cls-1" d="M 50.64 175.89999389648438 L 50.64000000000001 175.8999938964844 C 50.60000000000001 184.7099938964844 50.550000000000004 193.5199938964844 50.510000000000005 202.3299938964844 C 49.540000000000006 211.3499938964844 56.63 218.1499938964844 62.88 217.8099938964844 C 68.82 217.4799938964844 74.88 210.6599938964844 73.75 202.1999938964844 L 73.75 175.89999389648438 L 50.64 175.89999389648438"/><path class="cls-1" d="M 14.32 177.14999389648438 L 14.320000000000004 177.1499938964844 C 14.280000000000003 185.9599938964844 14.230000000000002 194.7699938964844 14.190000000000003 203.5799938964844 C 13.220000000000002 212.5999938964844 20.310000000000002 219.3999938964844 26.560000000000002 219.0599938964844 C 32.5 218.7299938964844 38.56 211.9099938964844 37.43 203.4499938964844 L 37.43 177.14999389648438 L 14.32 177.14999389648438"/></svg>