<?xml version="1.0" standalone="no"?>
<svg id="Layer_2" data-name="Layer 2" xmlns="http://www.w3.org/2000/svg" viewBox="0 0 180 252" style="width: 270.79px; height: 399.511px;"><path class="cls-1" d="M14.37,15.4399995803833L37.48,15.4399995803833L37.48,41.7399995803833C38.61,50.1999995803833,32.55,57.0199995803833,26.61,57.3499995803833C20.36,57.6899995803833,13.27,50.8899995803833,14.24,41.86999958038329C14.28,33.05999958038329,14.33,24.249999580383292,14.370000000000001,15.439999580383294Z"/><path class="cls-1" d="M50.69,15.4399995803833L73.8,15.4399995803833L73.8,41.7399995803833C74.92999999999999,50.1999995803833,68.87,57.0199995803833,62.93,57.3499995803833C56.68,57.6899995803833,49.59,50.8899995803833,50.56,41.86999958038329C50.6,33.05999958038329,50.650000000000006,24.249999580383292,50.690000000000005,15.439999580383294Z"/><path class="cls-1" d="M87.01,15.4399995803833L110.12,15.4399995803833L110.12,41.7399995803833C111.25,50.1999995803833,105.19,57.0199995803833,99.25,57.3499995803833C93,57.6899995803833,85.91,50.8899995803833,86.88,41.86999958038329C86.92,33.05999958038329,86.97,24.249999580383292,87.00999999999999,15.439999580383294Z"/><path class="cls-1" d="M122.49,15.4399995803833L145.6,15.4399995803833L145.6,41.7399995803833C146.73,50.1999995803833,140.67,57.0199995803833,134.73,57.3499995803833C128.48,57.6899995803833,121.38999999999999,50.8899995803833,122.35999999999999,41.86999958038329C122.39999999999999,33.05999958038329,122.44999999999999,24.249999580383292,122.48999999999998,15.439999580383294Z"/><path class="cls-1" d="M 122.49 68.66999816894531 L 122.48999999999998 68.66999816894531 C 122.44999999999999 77.4799981689453 122.39999999999999 86.2899981689453 122.35999999999999 95.0999981689453 C 121.38999999999999 104.11999816894532 128.48 110.91999816894531 134.73 110.57999816894531 C 140.67 110.24999816894531 146.73 103.4299981689453 145.6 94.96999816894531 L 145.6 68.66999816894531 L 122.49 68.66999816894531"/><path class="cls-1" d="M 87.01 68.66999816894531 L 87.00999999999999 68.66999816894531 C 86.97 77.4799981689453 86.92 86.2899981689453 86.88 95.0999981689453 C 85.91 104.11999816894532 93 110.91999816894531 99.25 110.57999816894531 C 105.19 110.24999816894531 111.25 103.4299981689453 110.12 94.96999816894531 L 110.12 68.66999816894531 L 87.01 68.66999816894531"/><path class="cls-1" d="M 50.69 68.66999816894531 L 50.690000000000005 68.66999816894531 C 50.650000000000006 77.4799981689453 50.6 86.2899981689453 50.56 95.0999981689453 C 49.59 104.11999816894532 56.68 110.91999816894531 62.93 110.57999816894531 C 68.87 110.24999816894531 74.92999999999999 103.4299981689453 73.8 94.96999816894531 L 73.8 68.66999816894531 L 50.69 68.66999816894531"/><path class="cls-1" d="M 14.37 68.66999816894531 L 14.370000000000001 68.66999816894531 C 14.33 77.4799981689453 14.28 86.2899981689453 14.24 95.0999981689453 C 13.27 104.11999816894532 20.36 110.91999816894531 26.61 110.57999816894531 C 32.55 110.24999816894531 38.61 103.4299981689453 37.48 94.96999816894531 L 37.48 68.66999816894531 L 14.37 68.66999816894531"/><path class="cls-1" d="M14.37,123.23999786376953L37.48,123.23999786376953L37.48,149.53999786376954C38.61,157.99999786376955,32.55,164.81999786376954,26.61,165.14999786376956C20.36,165.48999786376956,13.27,158.68999786376955,14.24,149.66999786376957C14.28,140.85999786376956,14.33,132.04999786376956,14.370000000000001,123.23999786376956Z"/><path class="cls-1" d="M 14.37 177.3699951171875 L 14.370000000000001 177.36999511718753 C 14.33 186.17999511718753 14.28 194.98999511718753 14.24 203.79999511718754 C 13.27 212.81999511718752 20.36 219.61999511718753 26.61 219.27999511718753 C 32.55 218.9499951171875 38.61 212.12999511718752 37.48 203.6699951171875 L 37.48 177.3699951171875 L 14.37 177.3699951171875"/><path class="cls-1" d="M50.69,176.1199951171875L73.8,176.1199951171875L73.8,202.4199951171875C74.92999999999999,210.87999511718752,68.87,217.6999951171875,62.93,218.02999511718753C56.68,218.36999511718753,49.59,211.56999511718752,50.56,202.54999511718754C50.6,193.73999511718753,50.650000000000006,184.92999511718753,50.690000000000005,176.11999511718753Z"/><path class="cls-1" d="M50.69,123.23999786376953L73.8,123.23999786376953L73.8,149.53999786376954C74.92999999999999,157.99999786376955,68.87,164.81999786376954,62.93,165.14999786376956C56.68,165.48999786376956,49.59,158.68999786376955,50.56,149.66999786376957C50.6,140.85999786376956,50.650000000000006,132.04999786376956,50.690000000000005,123.23999786376956Z"/><path class="cls-1" d="M87.01,123.23999786376953L110.12,123.23999786376953L110.12,149.53999786376954C111.25,157.99999786376955,105.19,164.81999786376954,99.25,165.14999786376956C93,165.48999786376956,85.91,158.68999786376955,86.88,149.66999786376957C86.92,140.85999786376956,86.97,132.04999786376956,87.00999999999999,123.23999786376956Z"/><path class="cls-1" d="M122.49,123.23999786376953L145.6,123.23999786376953L145.6,149.53999786376954C146.73,157.99999786376955,140.67,164.81999786376954,134.73,165.14999786376956C128.48,165.48999786376956,121.38999999999999,158.68999786376955,122.35999999999999,149.66999786376957C122.39999999999999,140.85999786376956,122.44999999999999,132.04999786376956,122.48999999999998,123.23999786376956Z"/></svg>